<svg width="17.500000" height="17.500000" viewBox="0 0 17.5 17.5" fill="none" xmlns="http://www.w3.org/2000/svg" xmlns:xlink="http://www.w3.org/1999/xlink">
	<desc>
			Created with Pixso.
	</desc>
	<defs/>
	<path id="Icon" d="M8.75 1.75C4.88 1.75 1.75 4.88 1.75 8.75C1.75 12.61 4.88 15.75 8.75 15.75C12.61 15.75 15.75 12.61 15.75 8.75C15.75 4.88 12.61 1.75 8.75 1.75ZM0 8.75C0 3.91 3.91 0 8.75 0C13.58 0 17.5 3.91 17.5 8.75C17.5 13.58 13.58 17.5 8.75 17.5C3.91 17.5 0 13.58 0 8.75ZM8.75 3.5C9.23 3.5 9.62 3.89 9.62 4.37L9.62 8.38L11.99 10.75C12.33 11.09 12.33 11.65 11.99 11.99C11.65 12.33 11.09 12.33 10.75 11.99L8.13 9.36C7.96 9.2 7.87 8.98 7.87 8.75L7.87 4.37C7.87 3.89 8.26 3.5 8.75 3.5Z" fill="#999999" fill-opacity="1.000000" fill-rule="evenodd"/>
</svg>
