<svg width="31.488037" height="23.808014" viewBox="0 0 31.488 23.808" fill="none" xmlns="http://www.w3.org/2000/svg" xmlns:xlink="http://www.w3.org/1999/xlink">
	<desc>
			Created with Pixso.
	</desc>
	<defs/>
	<path id="“" d="M12.35 23.8L12.28 11.39L9.53 11.39L9.53 9.4Q9.53 7.36 10.49 6.65C11.17 6.18 12.39 5.95 14.14 5.95L14.14 7.62e-6C8.98 7.62e-6 5.46 0.61 3.58 1.85Q3.43 1.95 3.29 2.05Q1.9e-5 4.51 1.9e-5 11.39L1.9e-5 23.8L12.35 23.8ZM29.69 23.8L29.63 11.39L26.88 11.39L26.88 9.4Q26.88 7.36 27.84 6.65C28.52 6.18 29.73 5.95 31.48 5.95L31.48 7.62e-6C26.32 7.62e-6 22.8 0.61 20.92 1.85Q20.78 1.95 20.63 2.05Q17.34 4.51 17.34 11.39L17.34 23.8L29.69 23.8Z" fill="#EB4D3D" fill-opacity="1.000000" fill-rule="evenodd"/>
</svg>
