<svg width="15.833344" height="17.500000" viewBox="0 0 15.8333 17.5" fill="none" xmlns="http://www.w3.org/2000/svg" xmlns:xlink="http://www.w3.org/1999/xlink">
	<desc>
			Created with Pixso.
	</desc>
	<defs/>
	<path id="Vector" d="M15.83 8.75C15.83 6.42 14.99 4.2 13.51 2.56C12.02 0.92 10.01 0 7.91 0L7.91 1.75C9.16 1.75 10.39 2.16 11.43 2.92C12.47 3.69 13.28 4.79 13.76 6.07C14.08 6.92 14.25 7.83 14.25 8.75L15.83 8.75ZM0 7L0 2.62C0 2.39 0.08 2.17 0.23 2C0.38 1.84 0.58 1.75 0.79 1.75L4.75 1.75C4.95 1.75 5.16 1.84 5.3 2C5.45 2.17 5.54 2.39 5.54 2.62L5.54 6.12C5.54 6.35 5.45 6.57 5.3 6.74C5.16 6.9 4.95 7 4.75 7L3.16 7C3.16 8.85 3.83 10.63 5.02 11.94C6.2 13.26 7.82 14 9.5 14L9.5 12.25C9.5 12.01 9.58 11.79 9.73 11.63C9.88 11.46 10.08 11.37 10.29 11.37L13.45 11.37C13.66 11.37 13.86 11.46 14.01 11.63C14.16 11.79 14.25 12.01 14.25 12.25L14.25 16.62C14.25 16.85 14.16 17.07 14.01 17.24C13.86 17.4 13.66 17.5 13.45 17.5L9.5 17.5C4.25 17.5 0 12.79 0 7Z" fill="#999999" fill-opacity="1.000000" fill-rule="evenodd"/>
</svg>
