<svg width="40.312500" height="29.062500" viewBox="0 0 40.3125 29.0625" fill="none" xmlns="http://www.w3.org/2000/svg" xmlns:xlink="http://www.w3.org/1999/xlink">
	<desc>
			Created with Pixso.
	</desc>
	<defs/>
	<path id="Vector" d="M20.15 14.06C24.03 14.06 27.18 10.9 27.18 7.03C27.18 3.15 24.03 0 20.15 0C16.27 0 13.12 3.15 13.12 7.03C13.12 10.9 16.27 14.06 20.15 14.06Z" fill="#EB4D3D" fill-opacity="1.000000" fill-rule="nonzero"/>
	<path id="Vector" d="M32.34 17.03C35.22 17.03 37.57 14.68 37.57 11.79C37.57 8.91 35.22 6.56 32.34 6.56C29.45 6.56 27.1 8.91 27.1 11.79C27.1 14.68 29.45 17.03 32.34 17.03Z" fill="#EB4D3D" fill-opacity="1.000000" fill-rule="nonzero"/>
	<path id="Vector" d="M7.96 17.03C10.85 17.03 13.2 14.68 13.2 11.79C13.2 8.91 10.85 6.56 7.96 6.56C5.08 6.56 2.73 8.91 2.73 11.79C2.73 14.68 5.08 17.03 7.96 17.03Z" fill="#EB4D3D" fill-opacity="1.000000" fill-rule="nonzero"/>
	<path id="Vector" d="M20.15 15C14.2 15 9.37 19.82 9.37 25.78L9.37 27.65C9.37 28.43 10 29.06 10.78 29.06L29.53 29.06C30.3 29.06 30.93 28.43 30.93 27.65L30.93 25.78C30.93 19.82 26.1 15 20.15 15Z" fill="#EB4D3D" fill-opacity="1.000000" fill-rule="evenodd"/>
	<path id="Vector" d="M7.96 18.75C3.57 18.75 0 22.32 0 26.71C0 28.01 1.05 29.06 2.34 29.06L7.53 29.06C6.92 28.11 6.56 26.99 6.56 25.78C6.56 23.22 7.28 20.82 8.52 18.78C8.34 18.77 8.15 18.75 7.96 18.75Z" fill="#EB4D3D" fill-opacity="1.000000" fill-rule="nonzero"/>
	<path id="Vector" d="M32.34 18.75C32.15 18.75 31.97 18.77 31.78 18.78C33.02 20.82 33.75 23.22 33.75 25.78C33.75 26.99 33.38 28.11 32.77 29.06L37.96 29.06C39.26 29.06 40.31 28.01 40.31 26.71C40.31 22.32 36.73 18.75 32.34 18.75Z" fill="#EB4D3D" fill-opacity="1.000000" fill-rule="nonzero"/>
</svg>
