<svg width="45.000000" height="42.187500" viewBox="0 0 45 42.1875" fill="none" xmlns="http://www.w3.org/2000/svg" xmlns:xlink="http://www.w3.org/1999/xlink">
	<desc>
			Created with Pixso.
	</desc>
	<defs/>
	<path id="Vector" d="M33.13 15.82C33.51 15.82 33.9 15.83 34.27 15.86L34.27 6.59C34.27 5.86 33.68 5.27 32.95 5.27L29 5.27L29 2.63L30.32 2.63C31.05 2.63 31.64 2.04 31.64 1.31C31.64 0.59 31.05 0 30.32 0L25.04 0C24.32 0 23.73 0.59 23.73 1.31C23.73 2.04 24.32 2.63 25.04 2.63L26.36 2.63L26.36 5.27L18.45 5.27L18.45 2.63L19.77 2.63C20.5 2.63 21.09 2.04 21.09 1.31C21.09 0.59 20.5 0 19.77 0L14.5 0C13.77 0 13.18 0.59 13.18 1.31C13.18 2.04 13.77 2.63 14.5 2.63L15.82 2.63L15.82 5.27L7.91 5.27L7.91 2.63L9.22 2.63C9.95 2.63 10.54 2.04 10.54 1.31C10.54 0.59 9.95 0 9.22 0L3.95 0C3.22 0 2.63 0.59 2.63 1.31C2.63 2.04 3.22 2.63 3.95 2.63L5.27 2.63L5.27 5.27L1.31 5.27C0.59 5.27 0 5.86 0 6.59L0 30.32C0 31.05 0.59 31.64 1.31 31.64L18.69 31.64C18.65 31.2 18.63 30.76 18.63 30.32C18.63 22.32 25.13 15.82 33.13 15.82ZM23.73 11.86L26.36 11.86C27.09 11.86 27.68 12.45 27.68 13.18C27.68 13.91 27.09 14.5 26.36 14.5L23.73 14.5C23 14.5 22.41 13.91 22.41 13.18C22.41 12.45 23 11.86 23.73 11.86ZM15.82 11.86L18.45 11.86C19.18 11.86 19.77 12.45 19.77 13.18C19.77 13.91 19.18 14.5 18.45 14.5L15.82 14.5C15.09 14.5 14.5 13.91 14.5 13.18C14.5 12.45 15.09 11.86 15.82 11.86ZM10.54 25.04L7.91 25.04C7.18 25.04 6.59 24.45 6.59 23.73C6.59 23 7.18 22.41 7.91 22.41L10.54 22.41C11.27 22.41 11.86 23 11.86 23.73C11.86 24.45 11.27 25.04 10.54 25.04ZM10.54 19.77L7.91 19.77C7.18 19.77 6.59 19.18 6.59 18.45C6.59 17.72 7.18 17.13 7.91 17.13L10.54 17.13C11.27 17.13 11.86 17.72 11.86 18.45C11.86 19.18 11.27 19.77 10.54 19.77ZM10.54 14.5L7.91 14.5C7.18 14.5 6.59 13.91 6.59 13.18C6.59 12.45 7.18 11.86 7.91 11.86L10.54 11.86C11.27 11.86 11.86 12.45 11.86 13.18C11.86 13.91 11.27 14.5 10.54 14.5ZM15.82 19.77C15.09 19.77 14.5 19.18 14.5 18.45C14.5 17.72 15.09 17.13 15.82 17.13L18.45 17.13C19.18 17.13 19.77 17.72 19.77 18.45C19.77 19.18 19.18 19.77 18.45 19.77L15.82 19.77Z" fill="#EB4D3D" fill-opacity="1.000000" fill-rule="nonzero"/>
	<path id="Vector" d="M33.13 18.45C26.59 18.45 21.26 23.77 21.26 30.32C21.26 36.86 26.59 42.18 33.13 42.18C39.67 42.18 45 36.86 45 30.32C45 23.77 39.67 18.45 33.13 18.45ZM35.77 31.64L33.13 31.64C32.4 31.64 31.81 31.05 31.81 30.32L31.81 25.04C31.81 24.32 32.4 23.73 33.13 23.73C33.86 23.73 34.45 24.32 34.45 25.04L34.45 29L35.77 29C36.49 29 37.08 29.59 37.08 30.32C37.08 31.05 36.49 31.64 35.77 31.64Z" fill="#EB4D3D" fill-opacity="1.000000" fill-rule="nonzero"/>
</svg>
