<svg width="30.000000" height="30.000000" viewBox="0 0 30 30" fill="none" xmlns="http://www.w3.org/2000/svg" xmlns:xlink="http://www.w3.org/1999/xlink">
	<desc>
			Created with Pixso.
	</desc>
	<defs>
		<clipPath id="clip51_486">
			<rect id="uil:whatsapp-alt" rx="-0.500000" width="29.000000" height="29.000000" transform="translate(0.500000 0.500000)" fill="white" fill-opacity="0"/>
		</clipPath>
	</defs>
	<rect id="uil:whatsapp-alt" rx="-0.500000" width="29.000000" height="29.000000" transform="translate(0.500000 0.500000)" fill="#FFFFFF" fill-opacity="0"/>
	<g clip-path="url(#clip51_486)">
		<path id="Vector" d="M27.5 8.18C27.48 7.64 27.44 7.11 27.37 6.57C27.28 6.1 27.12 5.65 26.91 5.22C26.68 4.76 26.38 4.33 26.02 3.97C25.65 3.61 25.23 3.31 24.77 3.08C24.34 2.87 23.89 2.72 23.42 2.63C22.89 2.55 22.36 2.51 21.82 2.5L8.18 2.5C7.64 2.51 7.1 2.55 6.57 2.62C6.1 2.71 5.65 2.87 5.22 3.08C4.76 3.31 4.33 3.61 3.97 3.97C3.61 4.34 3.31 4.76 3.08 5.22C2.87 5.65 2.72 6.1 2.63 6.57C2.55 7.1 2.51 7.63 2.5 8.17L2.5 21.81C2.51 22.35 2.55 22.88 2.62 23.42C2.71 23.89 2.87 24.34 3.08 24.77C3.31 25.23 3.61 25.66 3.97 26.02C4.34 26.38 4.76 26.68 5.22 26.91C5.65 27.12 6.1 27.27 6.57 27.36C7.1 27.44 7.63 27.48 8.17 27.5L21.81 27.5C22.35 27.48 22.89 27.44 23.42 27.37C23.89 27.28 24.34 27.12 24.77 26.91C25.23 26.68 25.66 26.38 26.02 26.02C26.38 25.65 26.68 25.23 26.91 24.77C27.12 24.34 27.27 23.89 27.36 23.42C27.44 22.89 27.48 22.36 27.5 21.82L27.5 8.85L27.5 8.18ZM15.28 23.75C13.78 23.74 12.31 23.35 11 22.62L6.25 23.87L7.5 19.22C6.69 17.87 6.26 16.32 6.25 14.75C6.25 12.97 6.78 11.24 7.77 9.77C8.75 8.3 10.15 7.15 11.79 6.48C13.43 5.8 15.23 5.62 16.96 5.97C18.7 6.31 20.3 7.16 21.55 8.41C22.81 9.66 23.67 11.25 24.02 12.99C24.37 14.73 24.2 16.53 23.53 18.17C22.86 19.81 21.72 21.21 20.25 22.2C18.78 23.2 17.05 23.73 15.28 23.75ZM15.28 7.33C13.96 7.35 12.66 7.71 11.52 8.39C10.38 9.07 9.45 10.04 8.81 11.2C8.16 12.36 7.84 13.67 7.87 15C7.9 16.32 8.28 17.61 8.97 18.75L9.15 19.03L8.4 21.77L11.25 21L11.52 21.16C12.66 21.83 13.95 22.19 15.27 22.2C17.26 22.2 19.17 21.4 20.57 20C21.98 18.59 22.77 16.68 22.77 14.7C22.77 12.71 21.98 10.8 20.57 9.39C19.17 7.99 17.26 7.19 15.27 7.19L15.28 7.33ZM19.66 17.98C19.49 18.26 19.27 18.49 19.01 18.67C18.75 18.86 18.46 18.98 18.15 19.04C17.68 19.13 17.2 19.1 16.75 18.96C16.32 18.82 15.9 18.67 15.5 18.48C13.95 17.71 12.63 16.54 11.67 15.11C11.15 14.44 10.83 13.64 10.76 12.8C10.75 12.44 10.82 12.1 10.95 11.77C11.09 11.45 11.29 11.16 11.55 10.92C11.62 10.83 11.71 10.77 11.82 10.72C11.92 10.67 12.03 10.65 12.15 10.64L12.5 10.64C12.63 10.64 12.82 10.64 13 11.03C13.17 11.42 13.63 12.58 13.7 12.7C13.73 12.76 13.74 12.82 13.74 12.89C13.74 12.96 13.73 13.02 13.7 13.08C13.64 13.22 13.56 13.34 13.47 13.46C13.36 13.6 13.23 13.76 13.13 13.86C13.03 13.96 12.91 14.08 13.03 14.31C13.37 14.88 13.79 15.4 14.28 15.86C14.81 16.33 15.42 16.7 16.08 16.97C16.31 17.08 16.45 17.07 16.57 16.97C16.7 16.87 17.13 16.32 17.28 16.1C17.43 15.87 17.58 15.91 17.78 15.98C17.98 16.06 19.1 16.6 19.32 16.71C19.54 16.82 19.68 16.87 19.75 16.97C19.8 17.3 19.77 17.63 19.66 17.95L19.66 17.98Z" fill="#FFFFFF" fill-opacity="1.000000" fill-rule="nonzero"/>
	</g>
</svg>
