<svg width="25.000000" height="25.000000" viewBox="0 0 25 25" fill="none" xmlns="http://www.w3.org/2000/svg" xmlns:xlink="http://www.w3.org/1999/xlink">
	<desc>
			Created with Pixso.
	</desc>
	<defs/>
	<path id="Vector" d="M25 5.68C24.98 5.14 24.94 4.61 24.87 4.07C24.78 3.6 24.62 3.15 24.41 2.72C24.18 2.26 23.88 1.83 23.52 1.47C23.15 1.11 22.73 0.81 22.27 0.58C21.84 0.37 21.39 0.22 20.92 0.13C20.39 0.05 19.86 0.01 19.32 0L5.68 0C5.14 0.01 4.6 0.05 4.07 0.12C3.6 0.21 3.15 0.37 2.72 0.58C2.26 0.81 1.83 1.11 1.47 1.47C1.11 1.84 0.81 2.26 0.58 2.72C0.37 3.15 0.22 3.6 0.13 4.07C0.05 4.6 0.01 5.13 0 5.67L0 19.31C0.01 19.85 0.05 20.38 0.12 20.92C0.21 21.39 0.37 21.84 0.58 22.27C0.81 22.73 1.11 23.16 1.47 23.52C1.84 23.88 2.26 24.18 2.72 24.41C3.15 24.62 3.6 24.77 4.07 24.86C4.6 24.94 5.13 24.98 5.67 25L19.31 25C19.85 24.98 20.39 24.94 20.92 24.87C21.39 24.78 21.84 24.62 22.27 24.41C22.73 24.18 23.16 23.88 23.52 23.52C23.88 23.15 24.18 22.73 24.41 22.27C24.62 21.84 24.77 21.39 24.86 20.92C24.94 20.39 24.98 19.86 25 19.32L25 6.35L25 5.68ZM12.78 21.25C11.28 21.24 9.81 20.85 8.5 20.12L3.75 21.37L5 16.72C4.19 15.37 3.76 13.82 3.75 12.25C3.75 10.47 4.28 8.74 5.27 7.27C6.25 5.8 7.65 4.65 9.29 3.98C10.93 3.3 12.73 3.12 14.46 3.47C16.2 3.81 17.8 4.66 19.05 5.91C20.31 7.16 21.17 8.75 21.52 10.49C21.87 12.23 21.7 14.03 21.03 15.67C20.36 17.31 19.22 18.71 17.75 19.7C16.28 20.7 14.55 21.23 12.78 21.25ZM12.78 4.83C11.46 4.85 10.16 5.21 9.02 5.89C7.88 6.57 6.95 7.54 6.31 8.7C5.66 9.86 5.34 11.17 5.37 12.5C5.4 13.82 5.78 15.11 6.47 16.25L6.65 16.53L5.9 19.27L8.75 18.5L9.02 18.66C10.16 19.33 11.45 19.69 12.77 19.7C14.76 19.7 16.67 18.9 18.07 17.5C19.48 16.09 20.27 14.18 20.27 12.2C20.27 10.21 19.48 8.3 18.07 6.89C16.67 5.49 14.76 4.69 12.77 4.69L12.78 4.83ZM17.16 15.48C16.99 15.76 16.77 15.99 16.51 16.17C16.25 16.36 15.96 16.48 15.65 16.54C15.18 16.63 14.7 16.6 14.25 16.46C13.82 16.32 13.4 16.17 13 15.98C11.45 15.21 10.13 14.04 9.17 12.61C8.65 11.94 8.33 11.14 8.26 10.3C8.25 9.94 8.32 9.6 8.45 9.27C8.59 8.95 8.79 8.66 9.04 8.42C9.12 8.33 9.21 8.27 9.32 8.22C9.42 8.17 9.53 8.15 9.65 8.14L10 8.14C10.13 8.14 10.32 8.14 10.5 8.53C10.67 8.92 11.13 10.08 11.2 10.2C11.23 10.26 11.24 10.32 11.24 10.39C11.24 10.46 11.23 10.52 11.2 10.58C11.14 10.72 11.06 10.84 10.97 10.96C10.86 11.1 10.73 11.26 10.63 11.36C10.53 11.46 10.41 11.58 10.53 11.81C10.87 12.38 11.29 12.9 11.78 13.36C12.31 13.83 12.92 14.2 13.58 14.47C13.81 14.58 13.95 14.57 14.07 14.47C14.2 14.37 14.63 13.82 14.78 13.6C14.93 13.37 15.08 13.41 15.28 13.48C15.48 13.56 16.6 14.1 16.82 14.21C17.04 14.32 17.18 14.37 17.25 14.47C17.3 14.8 17.27 15.13 17.16 15.45L17.16 15.48Z" fill="#FFFFFF" fill-opacity="1.000000" fill-rule="nonzero"/>
</svg>
