<svg width="24.699951" height="24.699707" viewBox="0 0 24.7 24.6997" fill="none" xmlns="http://www.w3.org/2000/svg" xmlns:xlink="http://www.w3.org/1999/xlink">
	<desc>
			Created with Pixso.
	</desc>
	<defs/>
	<path id="Vector" d="M24.69 16.14L24.69 8.58C24.69 1.67 23.06 0.03 16.15 0.03C-0.75 -0.08 -0.09 -0.77 0.03 16.13C0.03 23.04 1.66 24.68 8.57 24.68L14.3 24.68C21.65 24.81 24.87 24.3 24.69 16.14ZM19.94 17.62L18.14 17.62C17.46 17.62 17.25 17.07 16.03 15.85C14.97 14.82 14.52 14.69 14.25 14.69C13.87 14.69 13.77 14.79 13.77 15.31L13.77 16.92C13.77 17.36 13.63 17.62 12.49 17.62C10.59 17.62 8.49 16.46 7 14.33C4.77 11.21 4.16 8.85 4.16 8.37C4.16 8.1 4.27 7.86 4.78 7.86L6.58 7.86C7.04 7.86 7.21 8.07 7.39 8.54C8.12 10.96 10.65 14.98 10.69 12.66L10.69 10.02C10.61 8.81 9.97 8.71 9.97 8.27C9.97 8.08 10.15 7.86 10.43 7.86L13.26 7.86C13.64 7.86 13.77 8.05 13.77 8.52L13.77 12.08C13.82 12.94 14.35 12.6 14.89 12.05C16.19 10.61 17.1 8.37 17.1 8.37C17.21 8.1 17.42 7.86 17.88 7.86L19.68 7.86C20.22 7.86 20.33 8.13 20.22 8.52C20 9.57 17.8 12.65 17.8 12.66C17.61 12.96 17.53 13.11 17.8 13.46C18.32 14.1 22.09 17.51 19.94 17.62Z" fill="#FFFFFF" fill-opacity="1.000000" fill-rule="evenodd"/>
</svg>
