<svg width="25.781250" height="25.781250" viewBox="0 0 25.7812 25.7812" fill="none" xmlns="http://www.w3.org/2000/svg" xmlns:xlink="http://www.w3.org/1999/xlink">
	<desc>
			Created with Pixso.
	</desc>
	<defs/>
	<path id="Vector" d="M22.5 0L3.28 0C2.41 0 1.57 0.34 0.96 0.96C0.34 1.57 0 2.41 0 3.28L0 22.5C0 23.37 0.34 24.2 0.96 24.82C1.57 25.43 2.41 25.78 3.28 25.78L22.5 25.78C23.37 25.78 24.2 25.43 24.82 24.82C25.43 24.2 25.78 23.37 25.78 22.5L25.78 3.28C25.78 2.41 25.43 1.57 24.82 0.96C24.2 0.34 23.37 0 22.5 0ZM18.44 19.63C18.32 20.19 18.02 20.31 17.55 19.97C16.37 19.11 15.19 18.26 14.01 17.4C13.51 17.04 13.31 17.05 12.83 17.45C12.23 17.94 11.64 18.42 11.04 18.9C10.56 19.29 10.28 19.2 10.1 18.62C9.65 17.19 9.2 15.76 8.77 14.32C8.7 14.09 8.59 13.97 8.37 13.89C7.27 13.5 6.18 13.09 5.08 12.68C4.86 12.6 4.65 12.52 4.51 12.32C4.51 11.96 4.61 11.79 4.95 11.66C10.13 9.67 15.31 7.68 20.49 5.68C20.83 5.55 21.08 5.59 21.26 5.92C21.26 6.01 19.25 15.74 18.44 19.63Z" fill="#FFFFFF" fill-opacity="1.000000" fill-rule="nonzero"/>
</svg>
