<svg width="648.000000" height="208.424316" viewBox="0 0 648 208.424" fill="none" xmlns="http://www.w3.org/2000/svg" xmlns:xlink="http://www.w3.org/1999/xlink">
	<desc>
			Created with Pixso.
	</desc>
	<defs>
		<clipPath id="clip197_2140">
			<rect id="Frame" rx="-0.500000" width="377.000000" height="169.000000" transform="translate(141.065186 16.075684) rotate(3.513956)" fill="white" fill-opacity="0"/>
		</clipPath>
	</defs>
	<rect id="Frame" rx="-0.500000" width="377.000000" height="169.000000" transform="translate(141.065186 16.075684) rotate(3.513956)" fill="#FFFFFF" fill-opacity="0"/>
	<g clip-path="url(#clip197_2140)">
		<path id="Vector" d="M489.03 124L477 125.16C473.04 125.54 470.27 122.2 471.2 118.19C471.92 115.05 474.71 112.55 477.8 112.26L485.63 111.51C488.72 111.21 491.5 108.72 492.23 105.58C493.16 101.56 490.38 98.23 486.42 98.61L483.22 98.92C479.26 99.3 476.48 95.96 477.42 91.94C478.14 88.81 480.92 86.31 484.01 86.01L501.11 84.38C504.2 84.08 506.98 81.58 507.71 78.45C508.64 74.43 505.86 71.1 501.9 71.48L476.52 73.9L475.91 73.96L221.45 98.32C215.11 98.92 209.4 104.05 207.92 110.47L192.88 175.39C190.98 183.62 196.67 190.45 204.79 189.67L453.93 165.84L455.24 165.71L482.16 163.14C485.25 162.84 488.03 160.34 488.76 157.21C489.69 153.19 486.91 149.86 482.95 150.24L478.45 150.66C474.49 151.04 471.72 147.71 472.65 143.69C473.38 140.55 476.16 138.06 479.25 137.76L488.23 136.9C491.32 136.6 494.11 134.1 494.83 130.97C495.77 126.96 492.99 123.63 489.03 124Z" fill="#2A2D34" fill-opacity="1.000000" fill-rule="nonzero"/>
		<path id="Vector" d="M504.81 148.14C501.29 148.48 498.26 151.64 498.04 155.2C497.82 158.77 500.5 161.38 504.02 161.04C507.53 160.7 510.56 157.54 510.78 153.98C510.99 150.43 508.32 147.81 504.81 148.14Z" fill="#2A2D34" fill-opacity="1.000000" fill-rule="nonzero"/>
		<path id="Vector" d="M169.94 114.26L181.96 113.11C185.92 112.73 188.7 116.06 187.77 120.08C187.04 123.21 184.26 125.71 181.17 126.01L173.33 126.75C170.24 127.05 167.46 129.55 166.74 132.68C165.8 136.7 168.58 140.03 172.54 139.66L175.74 139.35C179.7 138.97 182.48 142.3 181.55 146.32C180.82 149.46 178.04 151.95 174.95 152.25L157.86 153.89C154.77 154.18 151.98 156.68 151.26 159.82C150.32 163.83 153.1 167.17 157.06 166.79L182.44 164.36L183.05 164.3L437.52 139.95C443.85 139.34 449.56 134.22 451.05 127.79L466.08 62.88C467.99 54.65 462.29 47.81 454.18 48.59L205.04 72.42L203.72 72.55L176.8 75.12C173.71 75.42 170.93 77.92 170.21 81.06C169.27 85.07 172.05 88.41 176.01 88.03L180.51 87.6C184.47 87.22 187.25 90.56 186.31 94.57C185.59 97.71 182.81 100.21 179.72 100.5L170.73 101.37C167.64 101.66 164.86 104.16 164.13 107.3C163.2 111.3 165.97 114.64 169.94 114.26Z" fill="#FFFFFF" fill-opacity="1.000000" fill-rule="nonzero"/>
		<path id="Vector" d="M154.16 90.12C157.67 89.79 160.7 86.62 160.92 83.06C161.14 79.5 158.46 76.88 154.95 77.23C151.43 77.56 148.4 80.73 148.18 84.28C147.97 87.84 150.64 90.45 154.16 90.12Z" fill="#FFFFFF" fill-opacity="1.000000" fill-rule="nonzero"/>
		<path id="Готово!" d="M277.51 123.82Q279.37 122 278.58 113.69Q277.79 105.37 275.6 103.91Q273.26 102.36 262.4 103.39Q251.5 104.42 249.51 106.41C248.29 107.62 247.95 111 248.47 116.54Q249.05 122.59 249.86 124.41C250.57 125.99 251.99 126.93 254.12 127.22C255.81 127.45 259.31 127.31 264.62 126.8Q275.51 125.77 277.51 123.82ZM343.94 117.52C345.17 116.31 345.53 112.93 345 107.39C344.48 101.85 343.48 98.59 342.02 97.61C340.46 96.58 336.06 96.41 328.82 97.09Q317.93 98.13 315.93 100.12C314.71 101.33 314.37 104.7 314.9 110.24Q315.47 116.3 316.28 118.12C316.99 119.7 318.41 120.64 320.54 120.93C322.23 121.15 325.73 121.01 331.04 120.51Q341.94 119.48 343.94 117.52ZM412.5 111.02C413.74 109.81 414.09 106.44 413.57 100.89C413.04 95.35 412.05 92.09 410.58 91.11C409.03 90.08 404.63 89.91 397.39 90.6Q386.49 91.63 384.5 93.62C383.28 94.83 382.94 98.2 383.46 103.75Q384.04 109.8 384.85 111.62C385.56 113.2 386.98 114.14 389.1 114.43C390.8 114.65 394.3 114.52 399.61 114.01C406.87 113.32 411.17 112.33 412.5 111.02ZM417.73 88.67L419.15 103.67L425.52 103.07L424.1 88.07L417.73 88.67ZM243.31 105.52L220.69 107.66L222.85 130.44L229.86 129.78L228.26 112.89L244.03 111.4L243.47 105.51L243.31 105.52ZM281.68 101.88L282.24 107.78L292.31 106.82L293.91 123.71L300.92 123.04L299.32 106.16L309.35 105.21L308.79 99.31L281.68 101.88ZM368.81 93.63L348.46 95.56L350.61 118.33L371.8 116.33C374.31 116.09 376.06 115.44 377.05 114.38C378.04 113.32 378.43 111.65 378.21 109.35Q377.98 106.89 376.63 105.53Q375.8 104.69 374.55 104.27C375.18 103.91 375.68 103.31 376.05 102.46Q376.6 101.18 376.43 99.4C376.18 96.7 375.26 94.94 373.68 94.13C372.62 93.59 371 93.42 368.81 93.63ZM356.28 103.46L355.99 100.4L368.41 99.23C368.98 99.17 369.43 99.25 369.75 99.45C370.07 99.66 370.26 100.04 370.31 100.59C370.36 101.12 370.24 101.53 369.94 101.81C369.67 102.07 369.25 102.23 368.7 102.28L356.28 103.46ZM256.95 120.88C256.25 120.45 255.76 118.78 255.48 115.87C255.21 112.94 255.37 111.21 255.99 110.68C256.62 110.13 258.95 109.66 262.99 109.28Q269.01 108.71 270.07 109.35C270.79 109.75 271.29 111.42 271.57 114.35C271.85 117.26 271.67 118.99 271.03 119.54C270.42 120.07 268.1 120.53 264.06 120.91Q258.04 121.48 256.95 120.88ZM323.37 114.58C322.67 114.16 322.18 112.49 321.9 109.58Q321.49 105.18 322.41 104.39C323.04 103.84 325.38 103.37 329.41 102.99C333.43 102.61 335.78 102.63 336.49 103.05C337.21 103.46 337.71 105.12 337.99 108.06C338.27 110.96 338.09 112.7 337.46 113.25C336.84 113.78 334.52 114.23 330.48 114.62C326.47 115 324.1 114.99 323.37 114.58ZM391.94 108.09C391.24 107.66 390.75 105.99 390.47 103.08C390.19 100.15 390.36 98.42 390.98 97.89C391.61 97.34 393.94 96.87 397.98 96.49C401.99 96.11 404.35 96.13 405.06 96.56C405.78 96.96 406.28 98.63 406.56 101.56C406.84 104.47 406.66 106.2 406.02 106.75C405.41 107.28 403.08 107.74 399.05 108.12C395.04 108.5 392.67 108.49 391.94 108.09ZM357.1 112.16L356.76 108.56L368.9 107.41C369.56 107.35 370.07 107.44 370.43 107.68C370.82 107.9 371.05 108.37 371.11 109.09C371.22 110.24 370.6 110.88 369.24 111.01L357.1 112.16ZM426.08 105.56L419.23 106.21L419.08 106.38L419.63 112.12L426.64 111.45L426.08 105.56Z" fill="#EB4D3D" fill-opacity="1.000000" fill-rule="evenodd"/>
	</g>
	<circle id="Ellipse 3" cx="581.500000" cy="13.500000" r="13.500000" fill="#EB4D3D" fill-opacity="1.000000"/>
	<circle id="Ellipse 3" cx="33.000000" cy="42.000000" r="8.000000" fill="#2A2D34" fill-opacity="1.000000"/>
	<circle id="Ellipse 3" cx="640.000000" cy="109.000000" r="8.000000" fill="#2A2D34" fill-opacity="1.000000"/>
	<circle id="Ellipse 3" cx="16.500000" cy="137.500000" r="16.500000" fill="#D9D9D9" fill-opacity="1.000000"/>
	<circle id="Ellipse 3" cx="594.500000" cy="170.500000" r="16.500000" fill="#2A2D34" fill-opacity="1.000000"/>
	<circle id="Ellipse 3" cx="103.500000" cy="111.500000" r="10.500000" fill="#EB4D3D" fill-opacity="1.000000"/>
	<circle id="Ellipse 3" cx="568.000000" cy="76.000000" r="4.000000" fill="#D9D9D9" fill-opacity="1.000000"/>
</svg>
