<svg width="160.000000" height="47.000000" viewBox="0 0 160 47" fill="none" xmlns="http://www.w3.org/2000/svg" xmlns:xlink="http://www.w3.org/1999/xlink">
	<desc>
			Created with Pixso.
	</desc>
	<defs/>
	<path id="Vector" d="M0 0L160 0L160 47L0 47L0 0Z" fill="#98FAEA" fill-opacity="1.000000" fill-rule="evenodd"/>
	<path id="Vector" d="M8.29 34.58L9.03 34.58L9.03 35.2L8.29 35.2L8.29 34.58Z" fill="#EB4D3D" fill-opacity="1.000000" fill-rule="evenodd"/>
	<path id="Vector" d="M9.33 34.58L10.07 34.58L10.07 35.2L9.33 35.2L9.33 34.58Z" fill="#EB4D3D" fill-opacity="1.000000" fill-rule="evenodd"/>
	<path id="Vector" d="M10.37 34.58L11.11 34.58L11.11 35.2L10.37 35.2L10.37 34.58Z" fill="#EB4D3D" fill-opacity="1.000000" fill-rule="evenodd"/>
	<path id="Vector" d="M11.41 34.58L12.16 34.58L12.16 35.2L11.41 35.2L11.41 34.58Z" fill="#EB4D3D" fill-opacity="1.000000" fill-rule="evenodd"/>
	<path id="Vector" d="M12.46 34.58L13.2 34.58L13.2 35.2L12.46 35.2L12.46 34.58Z" fill="#EB4D3D" fill-opacity="1.000000" fill-rule="evenodd"/>
	<path id="Vector" d="M13.5 34.58L14.24 34.58L14.24 35.2L13.5 35.2L13.5 34.58Z" fill="#EB4D3D" fill-opacity="1.000000" fill-rule="evenodd"/>
	<path id="Vector" d="M14.54 34.58L15.28 34.58L15.28 35.2L14.54 35.2L14.54 34.58Z" fill="#EB4D3D" fill-opacity="1.000000" fill-rule="evenodd"/>
	<path id="Vector" d="M15.58 34.58L16.32 34.58L16.32 35.2L15.58 35.2L15.58 34.58Z" fill="#EB4D3D" fill-opacity="1.000000" fill-rule="evenodd"/>
	<path id="Vector" d="M16.62 34.58L17.36 34.58L17.36 35.2L16.62 35.2L16.62 34.58Z" fill="#EB4D3D" fill-opacity="1.000000" fill-rule="evenodd"/>
	<path id="Vector" d="M17.66 34.58L18.4 34.58L18.4 35.2L17.66 35.2L17.66 34.58Z" fill="#EB4D3D" fill-opacity="1.000000" fill-rule="evenodd"/>
	<path id="Vector" d="M18.7 34.58L19.45 34.58L19.45 35.2L18.7 35.2L18.7 34.58Z" fill="#EB4D3D" fill-opacity="1.000000" fill-rule="evenodd"/>
	<path id="Vector" d="M19.75 34.58L20.49 34.58L20.49 35.2L19.75 35.2L19.75 34.58Z" fill="#EB4D3D" fill-opacity="1.000000" fill-rule="evenodd"/>
	<path id="Vector" d="M20.79 34.58L21.53 34.58L21.53 35.2L20.79 35.2L20.79 34.58Z" fill="#EB4D3D" fill-opacity="1.000000" fill-rule="evenodd"/>
	<path id="Vector" d="M21.83 34.58L22.57 34.58L22.57 35.2L21.83 35.2L21.83 34.58Z" fill="#EB4D3D" fill-opacity="1.000000" fill-rule="evenodd"/>
	<path id="Vector" d="M22.87 34.58L23.61 34.58L23.61 35.2L22.87 35.2L22.87 34.58Z" fill="#EB4D3D" fill-opacity="1.000000" fill-rule="evenodd"/>
	<path id="Vector" d="M23.91 34.58L24.65 34.58L24.65 35.2L23.91 35.2L23.91 34.58Z" fill="#EB4D3D" fill-opacity="1.000000" fill-rule="evenodd"/>
	<path id="Vector" d="M24.95 34.58L25.69 34.58L25.69 35.2L24.95 35.2L24.95 34.58Z" fill="#EB4D3D" fill-opacity="1.000000" fill-rule="evenodd"/>
	<path id="Vector" d="M25.99 34.58L26.73 34.58L26.73 35.2L25.99 35.2L25.99 34.58Z" fill="#EB4D3D" fill-opacity="1.000000" fill-rule="evenodd"/>
	<path id="Vector" d="M27.04 34.58L27.78 34.58L27.78 35.2L27.04 35.2L27.04 34.58Z" fill="#EB4D3D" fill-opacity="1.000000" fill-rule="evenodd"/>
	<path id="Vector" d="M28.08 34.58L28.82 34.58L28.82 35.2L28.08 35.2L28.08 34.58Z" fill="#EB4D3D" fill-opacity="1.000000" fill-rule="evenodd"/>
	<path id="Vector" d="M29.12 34.58L29.86 34.58L29.86 35.2L29.12 35.2L29.12 34.58Z" fill="#EB4D3D" fill-opacity="1.000000" fill-rule="evenodd"/>
	<path id="Vector" d="M30.16 34.58L30.9 34.58L30.9 35.2L30.16 35.2L30.16 34.58Z" fill="#EB4D3D" fill-opacity="1.000000" fill-rule="evenodd"/>
	<path id="Vector" d="M31.2 34.58L31.94 34.58L31.94 35.2L31.2 35.2L31.2 34.58Z" fill="#EB4D3D" fill-opacity="1.000000" fill-rule="evenodd"/>
	<path id="Vector" d="M32.24 34.58L32.98 34.58L32.98 35.2L32.24 35.2L32.24 34.58Z" fill="#EB4D3D" fill-opacity="1.000000" fill-rule="evenodd"/>
	<path id="Vector" d="M33.28 34.58L34.02 34.58L34.02 35.2L33.28 35.2L33.28 34.58Z" fill="#EB4D3D" fill-opacity="1.000000" fill-rule="evenodd"/>
	<path id="Vector" d="M34.32 34.58L35.07 34.58L35.07 35.2L34.32 35.2L34.32 34.58Z" fill="#EB4D3D" fill-opacity="1.000000" fill-rule="evenodd"/>
	<path id="Vector" d="M35.37 34.58L36.11 34.58L36.11 35.2L35.37 35.2L35.37 34.58Z" fill="#EB4D3D" fill-opacity="1.000000" fill-rule="evenodd"/>
	<path id="Vector" d="M36.41 34.58L37.15 34.58L37.15 35.2L36.41 35.2L36.41 34.58Z" fill="#EB4D3D" fill-opacity="1.000000" fill-rule="evenodd"/>
	<path id="Vector" d="M37.45 34.58L38.19 34.58L38.19 35.2L37.45 35.2L37.45 34.58Z" fill="#EB4D3D" fill-opacity="1.000000" fill-rule="evenodd"/>
	<path id="Vector" d="M38.49 34.58L39.23 34.58L39.23 35.2L38.49 35.2L38.49 34.58Z" fill="#EB4D3D" fill-opacity="1.000000" fill-rule="evenodd"/>
	<path id="Vector" d="M39.53 34.58L40.27 34.58L40.27 35.2L39.53 35.2L39.53 34.58Z" fill="#EB4D3D" fill-opacity="1.000000" fill-rule="evenodd"/>
	<path id="Vector" d="M40.57 34.58L41.31 34.58L41.31 35.2L40.57 35.2L40.57 34.58Z" fill="#EB4D3D" fill-opacity="1.000000" fill-rule="evenodd"/>
	<path id="Vector" d="M41.61 34.58L42.36 34.58L42.36 35.2L41.61 35.2L41.61 34.58Z" fill="#EB4D3D" fill-opacity="1.000000" fill-rule="evenodd"/>
	<path id="Vector" d="M42.66 34.58L43.4 34.58L43.4 35.2L42.66 35.2L42.66 34.58Z" fill="#EB4D3D" fill-opacity="1.000000" fill-rule="evenodd"/>
	<path id="Vector" d="M43.7 34.58L44.44 34.58L44.44 35.2L43.7 35.2L43.7 34.58Z" fill="#EB4D3D" fill-opacity="1.000000" fill-rule="evenodd"/>
	<path id="Vector" d="M44.74 34.58L45.48 34.58L45.48 35.2L44.74 35.2L44.74 34.58Z" fill="#EB4D3D" fill-opacity="1.000000" fill-rule="evenodd"/>
	<path id="Vector" d="M45.78 34.58L46.52 34.58L46.52 35.2L45.78 35.2L45.78 34.58Z" fill="#EB4D3D" fill-opacity="1.000000" fill-rule="evenodd"/>
	<path id="Vector" d="M46.82 34.58L47.56 34.58L47.56 35.2L46.82 35.2L46.82 34.58Z" fill="#EB4D3D" fill-opacity="1.000000" fill-rule="evenodd"/>
	<path id="Vector" d="M47.86 34.58L48.6 34.58L48.6 35.2L47.86 35.2L47.86 34.58Z" fill="#EB4D3D" fill-opacity="1.000000" fill-rule="evenodd"/>
	<path id="Vector" d="M48.9 34.58L49.65 34.58L49.65 35.2L48.9 35.2L48.9 34.58Z" fill="#EB4D3D" fill-opacity="1.000000" fill-rule="evenodd"/>
	<path id="Vector" d="M49.95 34.58L50.69 34.58L50.69 35.2L49.95 35.2L49.95 34.58Z" fill="#EB4D3D" fill-opacity="1.000000" fill-rule="evenodd"/>
	<path id="Vector" d="M50.99 34.58L51.73 34.58L51.73 35.2L50.99 35.2L50.99 34.58Z" fill="#EB4D3D" fill-opacity="1.000000" fill-rule="evenodd"/>
	<path id="Vector" d="M52.03 34.58L52.77 34.58L52.77 35.2L52.03 35.2L52.03 34.58Z" fill="#EB4D3D" fill-opacity="1.000000" fill-rule="evenodd"/>
	<path id="Vector" d="M53.07 34.58L53.81 34.58L53.81 35.2L53.07 35.2L53.07 34.58Z" fill="#EB4D3D" fill-opacity="1.000000" fill-rule="evenodd"/>
	<path id="Vector" d="M54.11 34.58L54.85 34.58L54.85 35.2L54.11 35.2L54.11 34.58Z" fill="#EB4D3D" fill-opacity="1.000000" fill-rule="evenodd"/>
	<path id="Vector" d="M55.15 34.58L55.89 34.58L55.89 35.2L55.15 35.2L55.15 34.58Z" fill="#EB4D3D" fill-opacity="1.000000" fill-rule="evenodd"/>
	<path id="Vector" d="M56.19 34.58L56.93 34.58L56.93 35.2L56.19 35.2L56.19 34.58Z" fill="#EB4D3D" fill-opacity="1.000000" fill-rule="evenodd"/>
	<path id="Vector" d="M57.23 34.58L57.98 34.58L57.98 35.2L57.23 35.2L57.23 34.58Z" fill="#EB4D3D" fill-opacity="1.000000" fill-rule="evenodd"/>
	<path id="Vector" d="M58.28 34.58L59.02 34.58L59.02 35.2L58.28 35.2L58.28 34.58Z" fill="#EB4D3D" fill-opacity="1.000000" fill-rule="evenodd"/>
	<path id="Vector" d="M59.32 34.58L60.06 34.58L60.06 35.2L59.32 35.2L59.32 34.58Z" fill="#EB4D3D" fill-opacity="1.000000" fill-rule="evenodd"/>
	<path id="Vector" d="M60.36 34.58L61.1 34.58L61.1 35.2L60.36 35.2L60.36 34.58Z" fill="#EB4D3D" fill-opacity="1.000000" fill-rule="evenodd"/>
	<path id="Vector" d="M61.4 34.58L62.14 34.58L62.14 35.2L61.4 35.2L61.4 34.58Z" fill="#EB4D3D" fill-opacity="1.000000" fill-rule="evenodd"/>
	<path id="Vector" d="M62.44 34.58L63.18 34.58L63.18 35.2L62.44 35.2L62.44 34.58Z" fill="#EB4D3D" fill-opacity="1.000000" fill-rule="evenodd"/>
	<path id="Vector" d="M63.48 34.58L64.22 34.58L64.22 35.2L63.48 35.2L63.48 34.58Z" fill="#EB4D3D" fill-opacity="1.000000" fill-rule="evenodd"/>
	<path id="Vector" d="M64.52 34.58L65.27 34.58L65.27 35.2L64.52 35.2L64.52 34.58Z" fill="#EB4D3D" fill-opacity="1.000000" fill-rule="evenodd"/>
	<path id="Vector" d="M65.57 34.58L66.31 34.58L66.31 35.2L65.57 35.2L65.57 34.58Z" fill="#EB4D3D" fill-opacity="1.000000" fill-rule="evenodd"/>
	<path id="Vector" d="M66.61 34.58L67.35 34.58L67.35 35.2L66.61 35.2L66.61 34.58Z" fill="#EB4D3D" fill-opacity="1.000000" fill-rule="evenodd"/>
	<path id="Vector" d="M67.65 34.58L68.39 34.58L68.39 35.2L67.65 35.2L67.65 34.58Z" fill="#EB4D3D" fill-opacity="1.000000" fill-rule="evenodd"/>
	<path id="Vector" d="M68.69 34.58L69.43 34.58L69.43 35.2L68.69 35.2L68.69 34.58Z" fill="#EB4D3D" fill-opacity="1.000000" fill-rule="evenodd"/>
	<path id="Vector" d="M69.73 34.58L70.47 34.58L70.47 35.2L69.73 35.2L69.73 34.58Z" fill="#EB4D3D" fill-opacity="1.000000" fill-rule="evenodd"/>
	<path id="Vector" d="M70.77 34.58L71.51 34.58L71.51 35.2L70.77 35.2L70.77 34.58Z" fill="#EB4D3D" fill-opacity="1.000000" fill-rule="evenodd"/>
	<path id="Vector" d="M71.81 34.58L72.56 34.58L72.56 35.2L71.81 35.2L71.81 34.58Z" fill="#EB4D3D" fill-opacity="1.000000" fill-rule="evenodd"/>
	<path id="Vector" d="M72.86 34.58L73.6 34.58L73.6 35.2L72.86 35.2L72.86 34.58Z" fill="#EB4D3D" fill-opacity="1.000000" fill-rule="evenodd"/>
	<path id="Vector" d="M73.9 34.58L74.64 34.58L74.64 35.2L73.9 35.2L73.9 34.58Z" fill="#EB4D3D" fill-opacity="1.000000" fill-rule="evenodd"/>
	<path id="Vector" d="M74.94 34.58L75.68 34.58L75.68 35.2L74.94 35.2L74.94 34.58Z" fill="#EB4D3D" fill-opacity="1.000000" fill-rule="evenodd"/>
	<path id="Vector" d="M75.98 34.58L76.72 34.58L76.72 35.2L75.98 35.2L75.98 34.58Z" fill="#EB4D3D" fill-opacity="1.000000" fill-rule="evenodd"/>
	<path id="Vector" d="M77.02 34.58L77.76 34.58L77.76 35.2L77.02 35.2L77.02 34.58Z" fill="#EB4D3D" fill-opacity="1.000000" fill-rule="evenodd"/>
	<path id="Vector" d="M78.06 34.58L78.8 34.58L78.8 35.2L78.06 35.2L78.06 34.58Z" fill="#EB4D3D" fill-opacity="1.000000" fill-rule="evenodd"/>
	<path id="Vector" d="M79.1 34.58L79.84 34.58L79.84 35.2L79.1 35.2L79.1 34.58Z" fill="#EB4D3D" fill-opacity="1.000000" fill-rule="evenodd"/>
	<path id="Vector" d="M80.15 34.58L80.89 34.58L80.89 35.2L80.15 35.2L80.15 34.58Z" fill="#EB4D3D" fill-opacity="1.000000" fill-rule="evenodd"/>
	<path id="Vector" d="M81.19 34.58L81.93 34.58L81.93 35.2L81.19 35.2L81.19 34.58Z" fill="#EB4D3D" fill-opacity="1.000000" fill-rule="evenodd"/>
	<path id="Vector" d="M82.23 34.58L82.97 34.58L82.97 35.2L82.23 35.2L82.23 34.58Z" fill="#EB4D3D" fill-opacity="1.000000" fill-rule="evenodd"/>
	<path id="Vector" d="M83.27 34.58L84.01 34.58L84.01 35.2L83.27 35.2L83.27 34.58Z" fill="#EB4D3D" fill-opacity="1.000000" fill-rule="evenodd"/>
	<path id="Vector" d="M84.31 34.58L85.05 34.58L85.05 35.2L84.31 35.2L84.31 34.58Z" fill="#EB4D3D" fill-opacity="1.000000" fill-rule="evenodd"/>
	<path id="Vector" d="M85.35 34.58L86.09 34.58L86.09 35.2L85.35 35.2L85.35 34.58Z" fill="#EB4D3D" fill-opacity="1.000000" fill-rule="evenodd"/>
	<path id="Vector" d="M86.39 34.58L87.13 34.58L87.13 35.2L86.39 35.2L86.39 34.58Z" fill="#EB4D3D" fill-opacity="1.000000" fill-rule="evenodd"/>
	<path id="Vector" d="M87.43 34.58L88.18 34.58L88.18 35.2L87.43 35.2L87.43 34.58Z" fill="#EB4D3D" fill-opacity="1.000000" fill-rule="evenodd"/>
	<path id="Vector" d="M88.48 34.58L89.22 34.58L89.22 35.2L88.48 35.2L88.48 34.58Z" fill="#EB4D3D" fill-opacity="1.000000" fill-rule="evenodd"/>
	<path id="Vector" d="M89.52 34.58L90.26 34.58L90.26 35.2L89.52 35.2L89.52 34.58Z" fill="#EB4D3D" fill-opacity="1.000000" fill-rule="evenodd"/>
	<path id="Vector" d="M90.56 34.58L91.3 34.58L91.3 35.2L90.56 35.2L90.56 34.58Z" fill="#EB4D3D" fill-opacity="1.000000" fill-rule="evenodd"/>
	<path id="Vector" d="M91.6 34.58L92.34 34.58L92.34 35.2L91.6 35.2L91.6 34.58Z" fill="#EB4D3D" fill-opacity="1.000000" fill-rule="evenodd"/>
	<path id="Vector" d="M92.64 34.58L93.38 34.58L93.38 35.2L92.64 35.2L92.64 34.58Z" fill="#EB4D3D" fill-opacity="1.000000" fill-rule="evenodd"/>
	<path id="Vector" d="M93.68 34.58L94.42 34.58L94.42 35.2L93.68 35.2L93.68 34.58Z" fill="#EB4D3D" fill-opacity="1.000000" fill-rule="evenodd"/>
	<path id="Vector" d="M94.72 34.58L95.47 34.58L95.47 35.2L94.72 35.2L94.72 34.58Z" fill="#EB4D3D" fill-opacity="1.000000" fill-rule="evenodd"/>
	<path id="Vector" d="M95.77 34.58L96.51 34.58L96.51 35.2L95.77 35.2L95.77 34.58Z" fill="#EB4D3D" fill-opacity="1.000000" fill-rule="evenodd"/>
	<path id="Vector" d="M96.81 34.58L97.55 34.58L97.55 35.2L96.81 35.2L96.81 34.58Z" fill="#EB4D3D" fill-opacity="1.000000" fill-rule="evenodd"/>
	<path id="Vector" d="M97.85 34.58L98.59 34.58L98.59 35.2L97.85 35.2L97.85 34.58Z" fill="#EB4D3D" fill-opacity="1.000000" fill-rule="evenodd"/>
	<path id="Vector" d="M98.89 34.58L99.63 34.58L99.63 35.2L98.89 35.2L98.89 34.58Z" fill="#EB4D3D" fill-opacity="1.000000" fill-rule="evenodd"/>
	<path id="Vector" d="M99.93 34.58L100.67 34.58L100.67 35.2L99.93 35.2L99.93 34.58Z" fill="#EB4D3D" fill-opacity="1.000000" fill-rule="evenodd"/>
	<path id="Vector" d="M100.97 34.58L101.71 34.58L101.71 35.2L100.97 35.2L100.97 34.58Z" fill="#EB4D3D" fill-opacity="1.000000" fill-rule="evenodd"/>
	<path id="Vector" d="M102.01 34.58L102.76 34.58L102.76 35.2L102.01 35.2L102.01 34.58Z" fill="#EB4D3D" fill-opacity="1.000000" fill-rule="evenodd"/>
	<path id="Vector" d="M103.06 34.58L103.8 34.58L103.8 35.2L103.06 35.2L103.06 34.58Z" fill="#EB4D3D" fill-opacity="1.000000" fill-rule="evenodd"/>
	<path id="Vector" d="M104.1 34.58L104.84 34.58L104.84 35.2L104.1 35.2L104.1 34.58Z" fill="#EB4D3D" fill-opacity="1.000000" fill-rule="evenodd"/>
	<path id="Vector" d="M105.14 34.58L105.88 34.58L105.88 35.2L105.14 35.2L105.14 34.58Z" fill="#EB4D3D" fill-opacity="1.000000" fill-rule="evenodd"/>
	<path id="Vector" d="M106.18 34.58L106.92 34.58L106.92 35.2L106.18 35.2L106.18 34.58Z" fill="#EB4D3D" fill-opacity="1.000000" fill-rule="evenodd"/>
	<path id="Vector" d="M107.22 34.58L107.96 34.58L107.96 35.2L107.22 35.2L107.22 34.58Z" fill="#EB4D3D" fill-opacity="1.000000" fill-rule="evenodd"/>
	<path id="Vector" d="M108.26 34.58L109 34.58L109 35.2L108.26 35.2L108.26 34.58Z" fill="#EB4D3D" fill-opacity="1.000000" fill-rule="evenodd"/>
	<path id="Vector" d="M109.3 34.58L110.05 34.58L110.05 35.2L109.3 35.2L109.3 34.58Z" fill="#EB4D3D" fill-opacity="1.000000" fill-rule="evenodd"/>
	<path id="Vector" d="M110.35 34.58L111.09 34.58L111.09 35.2L110.35 35.2L110.35 34.58Z" fill="#EB4D3D" fill-opacity="1.000000" fill-rule="evenodd"/>
	<path id="Vector" d="M111.39 34.58L112.13 34.58L112.13 35.2L111.39 35.2L111.39 34.58Z" fill="#EB4D3D" fill-opacity="1.000000" fill-rule="evenodd"/>
	<path id="Vector" d="M112.43 34.58L113.17 34.58L113.17 35.2L112.43 35.2L112.43 34.58Z" fill="#EB4D3D" fill-opacity="1.000000" fill-rule="evenodd"/>
	<path id="Vector" d="M113.47 34.58L114.21 34.58L114.21 35.2L113.47 35.2L113.47 34.58Z" fill="#EB4D3D" fill-opacity="1.000000" fill-rule="evenodd"/>
	<path id="Vector" d="M114.51 34.58L115.25 34.58L115.25 35.2L114.51 35.2L114.51 34.58Z" fill="#EB4D3D" fill-opacity="1.000000" fill-rule="evenodd"/>
	<path id="Vector" d="M115.55 34.58L116.29 34.58L116.29 35.2L115.55 35.2L115.55 34.58Z" fill="#EB4D3D" fill-opacity="1.000000" fill-rule="evenodd"/>
	<path id="Vector" d="M116.59 34.58L117.33 34.58L117.33 35.2L116.59 35.2L116.59 34.58Z" fill="#EB4D3D" fill-opacity="1.000000" fill-rule="evenodd"/>
	<path id="Vector" d="M117.64 34.58L118.38 34.58L118.38 35.2L117.64 35.2L117.64 34.58Z" fill="#EB4D3D" fill-opacity="1.000000" fill-rule="evenodd"/>
	<path id="Vector" d="M118.68 34.58L119.42 34.58L119.42 35.2L118.68 35.2L118.68 34.58Z" fill="#EB4D3D" fill-opacity="1.000000" fill-rule="evenodd"/>
	<path id="Vector" d="M119.72 34.58L120.46 34.58L120.46 35.2L119.72 35.2L119.72 34.58Z" fill="#EB4D3D" fill-opacity="1.000000" fill-rule="evenodd"/>
	<path id="Vector" d="M120.76 34.58L121.5 34.58L121.5 35.2L120.76 35.2L120.76 34.58Z" fill="#EB4D3D" fill-opacity="1.000000" fill-rule="evenodd"/>
	<path id="Vector" d="M121.8 34.58L122.54 34.58L122.54 35.2L121.8 35.2L121.8 34.58Z" fill="#EB4D3D" fill-opacity="1.000000" fill-rule="evenodd"/>
	<path id="Vector" d="M122.84 34.58L123.58 34.58L123.58 35.2L122.84 35.2L122.84 34.58Z" fill="#EB4D3D" fill-opacity="1.000000" fill-rule="evenodd"/>
	<path id="Vector" d="M123.88 34.58L124.62 34.58L124.62 35.2L123.88 35.2L123.88 34.58Z" fill="#EB4D3D" fill-opacity="1.000000" fill-rule="evenodd"/>
	<path id="Vector" d="M124.92 34.58L125.67 34.58L125.67 35.2L124.92 35.2L124.92 34.58Z" fill="#EB4D3D" fill-opacity="1.000000" fill-rule="evenodd"/>
	<path id="Vector" d="M125.97 34.58L126.71 34.58L126.71 35.2L125.97 35.2L125.97 34.58Z" fill="#EB4D3D" fill-opacity="1.000000" fill-rule="evenodd"/>
	<path id="Vector" d="M127.01 34.58L127.75 34.58L127.75 35.2L127.01 35.2L127.01 34.58Z" fill="#EB4D3D" fill-opacity="1.000000" fill-rule="evenodd"/>
	<path id="Vector" d="M128.05 34.58L128.79 34.58L128.79 35.2L128.05 35.2L128.05 34.58Z" fill="#EB4D3D" fill-opacity="1.000000" fill-rule="evenodd"/>
	<path id="Vector" d="M129.09 34.58L129.83 34.58L129.83 35.2L129.09 35.2L129.09 34.58Z" fill="#EB4D3D" fill-opacity="1.000000" fill-rule="evenodd"/>
	<path id="Vector" d="M130.13 34.58L130.87 34.58L130.87 35.2L130.13 35.2L130.13 34.58Z" fill="#EB4D3D" fill-opacity="1.000000" fill-rule="evenodd"/>
	<path id="Vector" d="M131.17 34.58L131.91 34.58L131.91 35.2L131.17 35.2L131.17 34.58Z" fill="#EB4D3D" fill-opacity="1.000000" fill-rule="evenodd"/>
	<path id="Vector" d="M132.21 34.58L132.96 34.58L132.96 35.2L132.21 35.2L132.21 34.58Z" fill="#EB4D3D" fill-opacity="1.000000" fill-rule="evenodd"/>
	<path id="Vector" d="M133.25 34.58L134 34.58L134 35.2L133.25 35.2L133.25 34.58Z" fill="#EB4D3D" fill-opacity="1.000000" fill-rule="evenodd"/>
	<path id="Vector" d="M134.3 34.58L135.04 34.58L135.04 35.2L134.3 35.2L134.3 34.58Z" fill="#EB4D3D" fill-opacity="1.000000" fill-rule="evenodd"/>
	<path id="Vector" d="M135.34 34.58L136.08 34.58L136.08 35.2L135.34 35.2L135.34 34.58Z" fill="#EB4D3D" fill-opacity="1.000000" fill-rule="evenodd"/>
	<path id="Vector" d="M136.38 34.58L137.12 34.58L137.12 35.2L136.38 35.2L136.38 34.58Z" fill="#EB4D3D" fill-opacity="1.000000" fill-rule="evenodd"/>
	<path id="Vector" d="M137.42 34.58L138.16 34.58L138.16 35.2L137.42 35.2L137.42 34.58Z" fill="#EB4D3D" fill-opacity="1.000000" fill-rule="evenodd"/>
	<path id="Vector" d="M138.46 34.58L139.2 34.58L139.2 35.2L138.46 35.2L138.46 34.58Z" fill="#EB4D3D" fill-opacity="1.000000" fill-rule="evenodd"/>
	<path id="Vector" d="M139.5 34.58L140.25 34.58L140.25 35.2L139.5 35.2L139.5 34.58Z" fill="#EB4D3D" fill-opacity="1.000000" fill-rule="evenodd"/>
	<path id="Vector" d="M140.55 34.58L141.29 34.58L141.29 35.2L140.55 35.2L140.55 34.58Z" fill="#EB4D3D" fill-opacity="1.000000" fill-rule="evenodd"/>
	<path id="Vector" d="M141.59 34.58L142.33 34.58L142.33 35.2L141.59 35.2L141.59 34.58Z" fill="#EB4D3D" fill-opacity="1.000000" fill-rule="evenodd"/>
	<path id="Vector" d="M142.63 34.58L143.37 34.58L143.37 35.2L142.63 35.2L142.63 34.58Z" fill="#EB4D3D" fill-opacity="1.000000" fill-rule="evenodd"/>
	<path id="Vector" d="M143.67 34.58L144.41 34.58L144.41 35.2L143.67 35.2L143.67 34.58Z" fill="#EB4D3D" fill-opacity="1.000000" fill-rule="evenodd"/>
	<path id="Vector" d="M144.71 34.58L145.45 34.58L145.45 35.2L144.71 35.2L144.71 34.58Z" fill="#EB4D3D" fill-opacity="1.000000" fill-rule="evenodd"/>
	<path id="Vector" d="M145.75 34.58L146.49 34.58L146.49 35.2L145.75 35.2L145.75 34.58Z" fill="#EB4D3D" fill-opacity="1.000000" fill-rule="evenodd"/>
	<path id="Vector" d="M146.79 34.58L147.53 34.58L147.53 35.2L146.79 35.2L146.79 34.58Z" fill="#EB4D3D" fill-opacity="1.000000" fill-rule="evenodd"/>
	<path id="Vector" d="M147.83 34.58L148.58 34.58L148.58 35.2L147.83 35.2L147.83 34.58Z" fill="#EB4D3D" fill-opacity="1.000000" fill-rule="evenodd"/>
	<path id="Vector" d="M148.88 34.58L149.62 34.58L149.62 35.2L148.88 35.2L148.88 34.58Z" fill="#EB4D3D" fill-opacity="1.000000" fill-rule="evenodd"/>
	<path id="Vector" d="M149.92 34.58L150.66 34.58L150.66 35.2L149.92 35.2L149.92 34.58Z" fill="#EB4D3D" fill-opacity="1.000000" fill-rule="evenodd"/>
	<path id="Vector" d="M150.96 34.58L151.7 34.58L151.7 35.2L150.96 35.2L150.96 34.58Z" fill="#EB4D3D" fill-opacity="1.000000" fill-rule="evenodd"/>
	<path id="Vector" d="M121.01 22.74C122.08 22.42 122.97 21.87 123.66 21.08C124.51 20.1 124.94 18.91 124.94 17.54C124.94 16.57 124.73 15.73 124.33 15.05C123.93 14.37 123.44 13.84 122.88 13.48C122.33 13.12 120.92 12.32 118.32 12.32C117.67 12.32 116.84 12.28 115.84 12.28L106.49 12.28L101.86 34.45L112.75 34.45C115.21 34.45 117.05 34.3 118.24 34.02C119.91 33.62 121.29 32.76 122.32 31.45C123.36 30.14 123.89 28.68 123.89 27.11C123.89 25.01 122.92 23.55 121.01 22.74ZM117.36 28.87C116.66 29.82 115.66 30.27 112.68 30.27L108.4 30.27L109.59 24.78L114.53 24.78C114.66 24.78 115 24.78 115.49 24.78C117.06 24.78 117.54 25.82 117.63 26.1C117.74 26.4 117.79 26.75 117.79 27.14C117.79 27.85 117.68 28.45 117.36 28.87ZM118.33 19.8C118.11 20.18 117.81 20.46 117.39 20.63C116.94 20.82 116.5 20.95 116.06 21.02C115.63 21.09 115.1 21.12 114.5 21.12L110.37 21.12L111.37 16.43L115.08 16.43C115.54 16.43 115.88 16.45 116.08 16.45C117.79 16.45 118.24 17.14 118.41 17.4C118.57 17.64 118.65 17.96 118.65 18.33C118.65 18.92 118.54 19.41 118.33 19.8Z" fill="#000000" fill-opacity="1.000000" fill-rule="nonzero"/>
	<path id="Vector" d="M30.03 12.28L9.31 12.28L8.29 16.67L15.42 16.67L11.65 34.45L17.68 34.45L21.63 16.67L29 16.67L30.03 12.28Z" fill="#000000" fill-opacity="1.000000" fill-rule="nonzero"/>
	<path id="Vector" d="M72.06 14.38C70.33 12.66 67.89 11.79 64.81 11.79C62.16 11.79 59.86 12.44 57.95 13.73C56.03 15.03 54.72 16.84 54.05 19.12L53.96 19.42L59.46 19.42L59.52 19.28C60.45 17.14 62.07 16.09 64.49 16.09C65.93 16.09 67.08 16.54 67.9 17.41C68.69 18.25 69.14 19.43 69.26 20.94L61.35 20.94L60.42 25.12L68.75 25.12C68.26 26.67 67.5 27.97 66.47 29C65.39 30.09 64.02 30.63 62.38 30.63C60.94 30.63 59.86 30.31 59.18 29.68C58.51 29.06 58.14 28.06 58.08 26.71L58.07 26.49L52.83 26.49L52.83 27.18C52.83 29.52 53.69 31.42 55.38 32.84C57.06 34.25 59.31 34.97 62.07 34.97C65.89 34.97 68.98 33.66 71.26 31.08C73.53 28.51 74.68 25.32 74.68 21.6C74.68 18.54 73.8 16.11 72.06 14.38Z" fill="#000000" fill-opacity="1.000000" fill-rule="nonzero"/>
	<path id="Vector" d="M83.19 12.28L80.13 25.11C79.68 27.1 79.05 28.13 78.47 28.79C77.9 29.44 76.44 29.97 74.81 29.55L74.59 29.5L73.58 34.2C73.58 34.2 76 34.45 76.98 34.45C79.74 34.45 81.18 33.66 82.58 32.32C83.97 31 85.07 29.17 85.85 25.83L87.96 16.67L94.2 16.67L90.25 34.45L96.49 34.45L101.16 12.28L83.19 12.28Z" fill="#000000" fill-opacity="1.000000" fill-rule="nonzero"/>
	<path id="Vector" d="M47.5 22.74C48.57 22.42 49.46 21.87 50.15 21.08C51 20.1 51.43 18.91 51.43 17.54C51.43 16.57 51.22 15.73 50.82 15.05C50.42 14.37 49.93 13.84 49.37 13.48C48.82 13.12 47.41 12.32 44.81 12.32C44.16 12.32 43.33 12.28 42.33 12.28L32.98 12.28L28.35 34.45L39.25 34.45C41.7 34.45 43.54 34.3 44.73 34.02C46.41 33.62 47.78 32.76 48.82 31.45C49.85 30.14 50.38 28.68 50.38 27.11C50.38 25.01 49.41 23.55 47.5 22.74ZM43.86 28.87C43.16 29.82 42.16 30.27 39.17 30.27L34.89 30.27L36.08 24.78L41.02 24.78C41.15 24.78 41.49 24.78 41.98 24.78C43.56 24.78 44.03 25.82 44.12 26.1C44.23 26.4 44.28 26.75 44.28 27.14C44.28 27.85 44.17 28.45 43.86 28.87ZM44.82 19.8C44.6 20.18 44.3 20.46 43.88 20.63C43.43 20.82 42.99 20.95 42.55 21.02C42.12 21.09 41.59 21.12 40.99 21.12L36.86 21.12L37.87 16.43L41.57 16.43C42.03 16.43 42.37 16.45 42.57 16.45C44.28 16.45 44.73 17.14 44.9 17.4C45.06 17.64 45.14 17.96 45.14 18.33C45.14 18.92 45.03 19.41 44.82 19.8Z" fill="#000000" fill-opacity="1.000000" fill-rule="nonzero"/>
	<path id="Vector" d="M144.78 12.28L133.33 26.79L136.41 12.28L130.69 12.28L125.97 34.45L132.62 34.45L144.06 19.91L140.95 34.45L146.67 34.45L151.39 12.28L144.78 12.28Z" fill="#000000" fill-opacity="1.000000" fill-rule="nonzero"/>
</svg>
