<svg width="43.858154" height="45.000000" viewBox="0 0 43.8582 45" fill="none" xmlns="http://www.w3.org/2000/svg" xmlns:xlink="http://www.w3.org/1999/xlink">
	<desc>
			Created with Pixso.
	</desc>
	<defs/>
	<path id="Vector" d="M35.95 25.33C31.59 25.33 28.04 21.79 28.04 17.43C28.04 13.07 31.59 9.52 35.95 9.52C40.31 9.52 43.85 13.07 43.85 17.43C43.85 21.79 40.31 25.33 35.95 25.33ZM34.42 20.55C34.5 20.55 34.58 20.51 34.65 20.44L40.21 14.89C40.34 14.76 40.34 14.55 40.21 14.41C40.09 14.28 39.87 14.28 39.73 14.41L34.42 19.74L32.16 17.49C32.03 17.35 31.82 17.35 31.69 17.49C31.56 17.62 31.56 17.83 31.69 17.96L34.18 20.44C34.24 20.51 34.32 20.55 34.42 20.55Z" fill="#EB4D3D" fill-opacity="1.000000" fill-rule="evenodd"/>
	<path id="Vector" d="M9.84 12.52C9.59 12.52 9.35 12.36 9.26 12.11C9.24 12.05 7.08 5.2 12.45 1.56C13.99 0.52 15.67 0 17.44 0C20.63 0 22.99 1.71 23.08 1.78C28.58 5.93 25.57 12.13 25.54 12.19C25.42 12.43 25.16 12.57 24.89 12.51C24.63 12.46 24.43 12.23 24.41 11.96C24.15 8.32 21.86 6.14 18.25 6.14C14.59 6.14 10.47 8.52 10.44 11.93C10.44 12.22 10.22 12.47 9.93 12.51C9.9 12.52 9.87 12.52 9.84 12.52Z" fill="#EB4D3D" fill-opacity="1.000000" fill-rule="evenodd"/>
	<path id="Vector" d="M17.42 22.91C12.91 22.91 9.23 19.23 9.23 14.71L9.23 11.9C9.23 11.58 9.5 11.31 9.84 11.31C10.17 11.31 10.43 11.58 10.43 11.9L10.43 14.71C10.43 18.57 13.56 21.7 17.42 21.7C21.28 21.7 24.41 18.57 24.41 14.71L24.41 11.92C24.41 11.59 24.68 11.33 25 11.33C25.33 11.33 25.6 11.59 25.6 11.92L25.6 14.71C25.6 19.23 21.93 22.91 17.42 22.91Z" fill="#EB4D3D" fill-opacity="1.000000" fill-rule="evenodd"/>
	<path id="Vector" d="M34.62 45L28.33 45L28.33 35.55C28.33 35.36 28.19 35.22 28 35.22C27.82 35.22 27.67 35.36 27.67 35.55L27.67 45L7.54 45L7.54 35.55C7.54 35.36 7.4 35.22 7.21 35.22C7.02 35.22 6.88 35.36 6.88 35.55L6.88 45L0.59 45C0.26 45 0 44.73 0 44.39L0 34.79C0 29.16 4.57 24.59 10.2 24.59L12.2 24.59C12.39 24.59 12.57 24.67 12.68 24.83L17.61 31.35L22.53 24.83C22.65 24.67 22.82 24.59 23.01 24.59L25.01 24.59C30.64 24.59 35.22 29.16 35.22 34.79L35.22 44.39C35.22 44.73 34.95 45 34.62 45Z" fill="#EB4D3D" fill-opacity="1.000000" fill-rule="evenodd"/>
	<path id="Vector" d="M23.01 25.78C22.8 25.78 22.6 25.68 22.49 25.48L20.35 21.76C20.19 21.48 20.28 21.11 20.57 20.94C20.85 20.79 21.22 20.88 21.39 21.17L23.53 24.89C23.69 25.17 23.6 25.53 23.31 25.7C23.22 25.76 23.11 25.78 23.01 25.78Z" fill="#EB4D3D" fill-opacity="1.000000" fill-rule="evenodd"/>
	<path id="Vector" d="M12.2 25.78C12.1 25.78 12 25.76 11.9 25.7C11.61 25.53 11.52 25.17 11.68 24.89L13.75 21.31C13.92 21.03 14.28 20.92 14.56 21.09C14.85 21.25 14.94 21.62 14.79 21.91L12.72 25.48C12.61 25.68 12.41 25.78 12.2 25.78Z" fill="#EB4D3D" fill-opacity="1.000000" fill-rule="evenodd"/>
</svg>
