<svg width="42.317871" height="42.353027" viewBox="0 0 42.3179 42.353" fill="none" xmlns="http://www.w3.org/2000/svg" xmlns:xlink="http://www.w3.org/1999/xlink">
	<desc>
			Created with Pixso.
	</desc>
	<defs/>
	<path id="Vector" d="M41.65 41.02L38.42 41.02L39.23 27.39C39.28 26.58 38.99 25.77 38.43 25.18C37.87 24.59 37.09 24.25 36.28 24.25L6.03 24.25C5.22 24.25 4.44 24.59 3.88 25.18C3.32 25.77 3.03 26.58 3.08 27.39L3.89 41.02L0.66 41.02C0.29 41.02 0 41.31 0 41.68C0 42.05 0.29 42.35 0.66 42.35L4.59 42.35C4.59 42.35 4.6 42.35 4.6 42.35L37.71 42.35C37.71 42.35 37.71 42.35 37.72 42.35L41.65 42.35C42.02 42.35 42.31 42.05 42.31 41.68C42.31 41.31 42.02 41.02 41.65 41.02ZM21.15 36.96C19.16 36.96 17.55 35.34 17.55 33.35C17.55 31.36 19.16 29.75 21.15 29.75C23.14 29.75 24.76 31.36 24.76 33.35C24.76 35.34 23.14 36.96 21.15 36.96Z" fill="#EB4D3D" fill-opacity="1.000000" fill-rule="nonzero"/>
	<path id="Vector" d="M10.69 15.77L13.37 15.77C13.51 16.14 13.66 16.5 13.84 16.86C13.84 16.87 13.84 16.87 13.84 16.87C14.65 18.54 15.85 20.14 17.33 21.21L13.6 21.21C12.03 21.21 10.55 21.84 9.47 22.92L32.83 22.92C31.76 21.84 30.27 21.21 28.7 21.21L24.98 21.21C26.78 19.91 28.16 17.83 28.94 15.77L31.62 15.77C32.64 15.77 33.48 14.94 33.48 13.91L33.48 12C33.48 11.34 33.12 10.76 32.6 10.43C32.09 4.55 27.14 0 21.15 0C15.17 0 10.22 4.55 9.71 10.43C9.19 10.76 8.83 11.34 8.83 12L8.83 13.91C8.83 14.94 9.67 15.77 10.69 15.77ZM28.36 12.51C28.28 13.29 28.11 14.08 27.84 14.9C26.83 17.93 24.32 21.2 21.18 21.21L21.13 21.21C19.01 21.2 17.17 19.7 15.89 17.79C16.62 17.99 17.57 18.18 18.76 18.26C19.05 19.19 19.94 19.87 21 19.87C22.29 19.87 23.34 18.86 23.34 17.63C23.34 16.39 22.29 15.39 21 15.39C19.96 15.39 19.09 16.03 18.78 16.92C16.58 16.75 15.31 16.22 14.9 16.01C14.74 15.64 14.59 15.27 14.47 14.9C14.09 13.78 13.91 12.69 13.91 11.66C13.91 11.38 13.92 11.13 13.94 10.88C14 10.33 14.11 9.8 14.26 9.29C14.93 9.07 16.83 8.62 19.22 9.66C19.79 9.91 20.38 10.01 20.97 10.01C23.46 10.01 26 8.2 27.11 7.31C27.79 8.34 28.24 9.55 28.36 10.88C28.39 11.13 28.4 11.38 28.4 11.66C28.4 11.94 28.39 12.22 28.36 12.51ZM21.15 1.33C26.31 1.33 30.6 5.15 31.23 10.15L29.6 10.15C28.91 5.87 25.38 2.71 21.16 2.71C17.47 2.71 14.32 5.11 13.11 8.55C13.11 8.56 13.11 8.56 13.11 8.56C12.93 9.07 12.81 9.6 12.72 10.15L11.08 10.15C11.71 5.15 16 1.33 21.15 1.33Z" fill="#EB4D3D" fill-opacity="1.000000" fill-rule="nonzero"/>
</svg>
