<svg width="30.000000" height="30.000000" viewBox="0 0 30 30" fill="none" xmlns="http://www.w3.org/2000/svg" xmlns:xlink="http://www.w3.org/1999/xlink">
	<desc>
			Created with Pixso.
	</desc>
	<defs>
		<clipPath id="clip51_493">
			<rect id="fi_3488454" rx="-0.500000" width="29.000000" height="29.000000" transform="translate(0.500000 0.500000)" fill="white" fill-opacity="0"/>
		</clipPath>
	</defs>
	<rect id="fi_3488454" rx="-0.500000" width="29.000000" height="29.000000" transform="translate(0.500000 0.500000)" fill="#FFFFFF" fill-opacity="0"/>
	<g clip-path="url(#clip51_493)">
		<path id="Vector" d="M19.59 10.71C19.55 10.73 14.53 13.81 12.09 15.33C11.72 15.55 11.59 15.84 11.69 16.24C11.94 17.15 12.22 18.06 12.48 18.97C12.51 19.09 12.55 19.22 12.7 19.22C12.89 19.22 12.9 19.05 12.92 18.93C12.98 18.51 13.05 18.1 13.08 17.68C13.1 17.48 13.15 17.28 13.24 17.09C13.33 16.91 13.46 16.75 13.61 16.62C15.28 15.08 19.32 11.31 19.68 10.97C19.8 10.86 19.79 10.69 19.59 10.71Z" fill="#FFFFFF" fill-opacity="1.000000" fill-rule="nonzero"/>
		<path id="Vector" d="M24.6 2.1L5.39 2.1C4.52 2.1 3.68 2.45 3.07 3.07C2.45 3.68 2.1 4.52 2.1 5.39L2.1 24.6C2.1 25.47 2.45 26.31 3.07 26.92C3.68 27.54 4.52 27.89 5.39 27.89L24.6 27.89C25.47 27.89 26.31 27.54 26.92 26.92C27.54 26.31 27.89 25.47 27.89 24.6L27.89 5.39C27.89 4.52 27.54 3.68 26.92 3.07C26.31 2.45 25.47 2.1 24.6 2.1ZM20.55 21.74C20.43 22.3 20.13 22.42 19.66 22.08C18.48 21.22 17.3 20.37 16.12 19.51C15.62 19.15 15.42 19.16 14.94 19.56C14.34 20.05 13.75 20.53 13.15 21.01C12.67 21.4 12.39 21.31 12.21 20.73C11.76 19.3 11.31 17.87 10.88 16.43C10.81 16.2 10.7 16.08 10.48 16C9.38 15.61 8.29 15.2 7.19 14.79C6.97 14.71 6.76 14.63 6.62 14.43C6.62 14.07 6.72 13.9 7.06 13.77C12.24 11.78 17.42 9.79 22.6 7.79C22.94 7.66 23.19 7.7 23.37 8.03C23.37 8.12 21.36 17.85 20.55 21.74Z" fill="#FFFFFF" fill-opacity="1.000000" fill-rule="nonzero"/>
	</g>
</svg>
