<svg width="26.000000" height="26.000000" viewBox="0 0 26 26" fill="none" xmlns="http://www.w3.org/2000/svg" xmlns:xlink="http://www.w3.org/1999/xlink">
	<desc>
			Created with Pixso.
	</desc>
	<defs>
		<clipPath id="clip51_489">
			<rect id="fi_15047438" rx="-0.500000" width="25.000000" height="25.000000" transform="translate(0.500000 0.500000)" fill="white" fill-opacity="0"/>
		</clipPath>
	</defs>
	<rect id="fi_15047438" rx="-0.500000" width="25.000000" height="25.000000" transform="translate(0.500000 0.500000)" fill="#FFFFFF" fill-opacity="0"/>
	<g clip-path="url(#clip51_489)">
		<path id="Vector" d="M25.34 16.79L25.34 9.23C25.34 2.32 23.71 0.68 16.8 0.68C-0.1 0.57 0.56 -0.12 0.68 16.78C0.68 23.69 2.31 25.33 9.22 25.33L14.95 25.33C22.3 25.46 25.52 24.95 25.34 16.79ZM20.59 18.27L18.79 18.27C18.11 18.27 17.9 17.72 16.68 16.5C15.62 15.47 15.17 15.34 14.9 15.34C14.52 15.34 14.42 15.44 14.42 15.96L14.42 17.57C14.42 18.01 14.28 18.27 13.14 18.27C11.24 18.27 9.14 17.11 7.65 14.98C5.42 11.86 4.81 9.5 4.81 9.02C4.81 8.75 4.92 8.51 5.43 8.51L7.23 8.51C7.69 8.51 7.86 8.72 8.04 9.19C8.77 11.61 11.3 15.63 11.34 13.31L11.34 10.67C11.26 9.46 10.62 9.36 10.62 8.92C10.62 8.73 10.8 8.51 11.08 8.51L13.91 8.51C14.29 8.51 14.42 8.7 14.42 9.16L14.42 12.73C14.47 13.59 15 13.25 15.54 12.7C16.84 11.26 17.75 9.02 17.75 9.02C17.86 8.75 18.07 8.51 18.53 8.51L20.33 8.51C20.87 8.51 20.98 8.78 20.87 9.17C20.65 10.22 18.45 13.3 18.45 13.31C18.26 13.61 18.18 13.76 18.45 14.11C18.97 14.75 22.74 18.16 20.59 18.27Z" fill="#FFFFFF" fill-opacity="1.000000" fill-rule="evenodd"/>
	</g>
</svg>
